<!-- icons.svg -->
<svg xmlns="http://www.w3.org/2000/svg" style="display:none">
  <symbol id="i-home" viewBox="0 0 24 24"><path d="M3 10.5 12 3l9 7.5"/><path d="M5 10v10h5v-6h4v6h5V10"/></symbol>
  <symbol id="i-search" viewBox="0 0 24 24"><circle cx="11" cy="11" r="7"/><path d="M20 20l-3.5-3.5"/></symbol>
  <symbol id="i-library" viewBox="0 0 24 24"><path d="M4 6h3v14H4z"/><path d="M10 6h3v14h-3z"/><path d="M16 6h4v14h-4z"/></symbol>
  <symbol id="i-menu" viewBox="0 0 24 24"><path d="M4 7h16"/><path d="M4 12h16"/><path d="M4 17h16"/></symbol>
  <symbol id="i-x" viewBox="0 0 24 24"><path d="M6 6l12 12"/><path d="M18 6L6 18"/></symbol>
  <symbol id="i-settings" viewBox="0 0 24 24"><path d="M12 15.5a3.5 3.5 0 1 0 0-7 3.5 3.5 0 0 0 0 7Z"/><path d="M19.4 15a7.8 7.8 0 0 0 .1-2l2-1.2-2-3.4-2.3.6a7.7 7.7 0 0 0-1.7-1L15 4h-6l-.5 2.9a7.7 7.7 0 0 0-1.7 1l-2.3-.6-2 3.4L4.6 13a7.8 7.8 0 0 0 .1 2L2.7 16.2l2 3.4 2.3-.6a7.7 7.7 0 0 0 1.7 1L9 22h6l.5-2.9a7.7 7.7 0 0 0 1.7-1l2.3.6 2-3.4Z"/></symbol>

  <symbol id="i-play" viewBox="0 0 24 24"><path d="M8 5l12 7-12 7Z"/></symbol>
  <symbol id="i-pause" viewBox="0 0 24 24"><path d="M7 6h4v12H7z"/><path d="M13 6h4v12h-4z"/></symbol>
  <symbol id="i-skip-back" viewBox="0 0 24 24"><path d="M7 6v12"/><path d="M18 6l-10 6 10 6Z"/></symbol>
  <symbol id="i-skip-forward" viewBox="0 0 24 24"><path d="M17 6v12"/><path d="M6 6l10 6-10 6Z"/></symbol>
  <symbol id="i-shuffle" viewBox="0 0 24 24"><path d="M16 3h5v5"/><path d="M4 20l6-6"/><path d="M4 4l6 6"/><path d="M21 3l-7 7"/><path d="M16 21h5v-5"/><path d="M21 21l-7-7"/></symbol>
  <symbol id="i-repeat" viewBox="0 0 24 24"><path d="M17 2l4 4-4 4"/><path d="M3 11V7a3 3 0 0 1 3-3h15"/><path d="M7 22l-4-4 4-4"/><path d="M21 13v4a3 3 0 0 1-3 3H3"/></symbol>
  <symbol id="i-repeat-1" viewBox="0 0 24 24"><path d="M17 2l4 4-4 4"/><path d="M3 11V7a3 3 0 0 1 3-3h15"/><path d="M7 22l-4-4 4-4"/><path d="M21 13v4a3 3 0 0 1-3 3H3"/><path d="M12 9h2v6"/><path d="M12 9l-1 1"/></symbol>

  <symbol id="i-heart" viewBox="0 0 24 24"><path d="M12 21s-7-4.6-9.3-8.2C.6 9.7 2.6 6 6.6 6c2 0 3.3 1.1 4.2 2.2C11.7 7.1 13 6 15 6c4 0 6 3.7 3.9 6.8C19 16.4 12 21 12 21Z"/></symbol>
  <symbol id="i-heart-fill" viewBox="0 0 24 24"><path fill="currentColor" stroke="none" d="M12 21s-7-4.6-9.3-8.2C.6 9.7 2.6 6 6.6 6c2 0 3.3 1.1 4.2 2.2C11.7 7.1 13 6 15 6c4 0 6 3.7 3.9 6.8C19 16.4 12 21 12 21Z"/></symbol>

  <symbol id="i-queue" viewBox="0 0 24 24"><path d="M4 6h16"/><path d="M4 12h10"/><path d="M4 18h16"/><path d="M16 10l4 2-4 2Z"/></symbol>

  <symbol id="i-volume-2" viewBox="0 0 24 24"><path d="M11 5 6 9H2v6h4l5 4Z"/><path d="M15.5 8.5a5 5 0 0 1 0 7"/><path d="M18.5 5.5a9 9 0 0 1 0 13"/></symbol>
  <symbol id="i-volume-1" viewBox="0 0 24 24"><path d="M11 5 6 9H2v6h4l5 4Z"/><path d="M15.5 8.5a5 5 0 0 1 0 7"/></symbol>
  <symbol id="i-volume-x" viewBox="0 0 24 24"><path d="M11 5 6 9H2v6h4l5 4Z"/><path d="M16 9l6 6"/><path d="M22 9l-6 6"/></symbol>

  <symbol id="i-trash" viewBox="0 0 24 24"><path d="M4 7h16"/><path d="M10 11v7"/><path d="M14 11v7"/><path d="M6 7l1 14h10l1-14"/><path d="M9 7V4h6v3"/></symbol>
  <symbol id="i-plus" viewBox="0 0 24 24"><path d="M12 5v14"/><path d="M5 12h14"/></symbol>
  <symbol id="i-grip" viewBox="0 0 24 24"><path d="M9 6h.01"/><path d="M9 12h.01"/><path d="M9 18h.01"/><path d="M15 6h.01"/><path d="M15 12h.01"/><path d="M15 18h.01"/></symbol>

  <symbol id="i-clock" viewBox="0 0 24 24"><circle cx="12" cy="12" r="9"/><path d="M12 7v6l4 2"/></symbol>
  <symbol id="i-info" viewBox="0 0 24 24"><circle cx="12" cy="12" r="9"/><path d="M12 10h.01"/><path d="M11 14h2v4h-2z"/></symbol>
</svg>